# xmcd
#
# Track frame offsets:
# 150
# 15871
# 36143
# 54765
# 74396
# 95204
# 112878
# 131900
# 152556
# 176126
# 196029
# 214653
# 233268
# 268577
# 353166
#
# Disc length: 4709 seconds
#
#
# Revision: 1
# Processed by: cddbd v1.5.1PL0 Copyright (c) Steve Scherf et al.
# Submitted via: FreeRIP 2.51 
#
DISCID=c312630f
DTITLE=Tedi Spalato - Lipote gladan, ljubavi zedan
DYEAR=2005
DGENRE=Soul
TTITLE0=Lipote gladan, ljubavi zedan
TTITLE1=Lito feat. Marijan Ban
TTITLE2=Kad zanime kapitani
TTITLE3=Ti i ja feat. Tamara Obrovac
TTITLE4=Pofrajat cu zivot
TTITLE5=Oblaci
TTITLE6=Matere dvi feat. Oliver Dragojevic
TTITLE7=Ostrokonda
TTITLE8=Borovi
TTITLE9=Marinero
TTITLE10=Patimenti
TTITLE11=Kraj tvoje duse moje
TTITLE12=Fado
TTITLE13=Licence data
TTITLE14=Meta data
EXTD=
EXTT0=
EXTT1=
EXTT2=
EXTT3=
EXTT4=
EXTT5=
EXTT6=
EXTT7=
EXTT8=
EXTT9=
EXTT10=
EXTT11=
EXTT12=
EXTT13=
EXTT14=
PLAYORDER=
